<?xml version="1.0" encoding="UTF-8"?>
<svg version="1.1" xmlns="http://www.w3.org/2000/svg" width="512" height="512">
<path d="M0 0 C10.56 0 21.12 0 32 0 C32 9.9 32 19.8 32 30 C41.9 30 51.8 30 62 30 C62 40.23 62 50.46 62 61 C52.1 61 42.2 61 32 61 C32 80.47 32 99.94 32 120 C41.9 120 51.8 120 62 120 C62 139.8 62 159.6 62 180 C71.57 180 81.14 180 91 180 C91 170.1 91 160.2 91 150 C111.13 150 131.26 150 152 150 C152 159.9 152 169.8 152 180 C161.9 180 171.8 180 182 180 C182 189.9 182 199.8 182 210 C191.57 210 201.14 210 211 210 C211 190.53 211 171.06 211 151 C201.1 151 191.2 151 181 151 C181 140.77 181 130.54 181 120 C190.9 120 200.8 120 211 120 C211 110.1 211 100.2 211 90 C221.23 90 231.46 90 242 90 C242 99.9 242 109.8 242 120 C251.9 120 261.8 120 272 120 C272 130.23 272 140.46 272 151 C262.1 151 252.2 151 242 151 C242 170.47 242 189.94 242 210 C251.9 210 261.8 210 272 210 C272 240.36 272 270.72 272 302 C262.1 302 252.2 302 242 302 C242 331.7 242 361.4 242 392 C232.1 392 222.2 392 212 392 C212 401.57 212 411.14 212 421 C221.9 421 231.8 421 242 421 C242 430.9 242 440.8 242 451 C251.9 451 261.8 451 272 451 C272 461.23 272 471.46 272 482 C262.1 482 252.2 482 242 482 C242 491.9 242 501.8 242 512 C92.84 512 -56.32 512 -210 512 C-210 502.1 -210 492.2 -210 482 C-219.9 482 -229.8 482 -240 482 C-240 471.77 -240 461.54 -240 451 C-230.1 451 -220.2 451 -210 451 C-210 441.1 -210 431.2 -210 421 C-200.1 421 -190.2 421 -180 421 C-180 411.43 -180 401.86 -180 392 C-189.9 392 -199.8 392 -210 392 C-210 362.3 -210 332.6 -210 302 C-219.9 302 -229.8 302 -240 302 C-240 271.64 -240 241.28 -240 210 C-230.1 210 -220.2 210 -210 210 C-210 190.53 -210 171.06 -210 151 C-219.9 151 -229.8 151 -240 151 C-240 140.77 -240 130.54 -240 120 C-230.1 120 -220.2 120 -210 120 C-210 110.1 -210 100.2 -210 90 C-199.77 90 -189.54 90 -179 90 C-179 99.9 -179 109.8 -179 120 C-169.1 120 -159.2 120 -149 120 C-149 130.23 -149 140.46 -149 151 C-158.9 151 -168.8 151 -179 151 C-179 170.47 -179 189.94 -179 210 C-169.43 210 -159.86 210 -150 210 C-150 200.1 -150 190.2 -150 180 C-140.1 180 -130.2 180 -120 180 C-120 170.1 -120 160.2 -120 150 C-99.87 150 -79.74 150 -59 150 C-59 159.9 -59 169.8 -59 180 C-49.43 180 -39.86 180 -30 180 C-30 160.2 -30 140.4 -30 120 C-20.1 120 -10.2 120 0 120 C0 100.53 0 81.06 0 61 C-9.9 61 -19.8 61 -30 61 C-30 50.77 -30 40.54 -30 30 C-20.1 30 -10.2 30 0 30 C0 20.1 0 10.2 0 0 Z " fill="#FEC806" transform="translate(240,0)"/>
<path d="M0 0 C10.56 0 21.12 0 32 0 C32 9.9 32 19.8 32 30 C41.9 30 51.8 30 62 30 C62 40.23 62 50.46 62 61 C52.1 61 42.2 61 32 61 C32 80.47 32 99.94 32 120 C41.9 120 51.8 120 62 120 C62 139.8 62 159.6 62 180 C71.57 180 81.14 180 91 180 C91 170.1 91 160.2 91 150 C111.13 150 131.26 150 152 150 C152 159.9 152 169.8 152 180 C161.9 180 171.8 180 182 180 C182 189.9 182 199.8 182 210 C191.57 210 201.14 210 211 210 C211 190.53 211 171.06 211 151 C201.1 151 191.2 151 181 151 C181 140.77 181 130.54 181 120 C190.9 120 200.8 120 211 120 C211 110.1 211 100.2 211 90 C221.23 90 231.46 90 242 90 C242 99.9 242 109.8 242 120 C251.9 120 261.8 120 272 120 C272 130.23 272 140.46 272 151 C262.1 151 252.2 151 242 151 C242 170.47 242 189.94 242 210 C251.9 210 261.8 210 272 210 C272 240.36 272 270.72 272 302 C262.1 302 252.2 302 242 302 C242 331.7 242 361.4 242 392 C232.1 392 222.2 392 212 392 C212 361.97 212 331.94 212 301 C221.9 301 231.8 301 242 301 C242 271.3 242 241.6 242 211 C232.1 211 222.2 211 212 211 C212 220.9 212 230.8 212 241 C202.1 241 192.2 241 182 241 C182 231.1 182 221.2 182 211 C161.87 211 141.74 211 121 211 C121 201.1 121 191.2 121 181 C111.43 181 101.86 181 92 181 C92 200.8 92 220.6 92 241 C101.57 241 111.14 241 121 241 C121 250.9 121 260.8 121 271 C111.1 271 101.2 271 91 271 C91 261.1 91 251.2 91 241 C81.1 241 71.2 241 61 241 C61 221.2 61 201.4 61 181 C51.1 181 41.2 181 31 181 C31 160.87 31 140.74 31 120 C21.1 120 11.2 120 1 120 C1 140.13 1 160.26 1 181 C-8.9 181 -18.8 181 -29 181 C-29 200.8 -29 220.6 -29 241 C-38.9 241 -48.8 241 -59 241 C-59 250.9 -59 260.8 -59 271 C-69.23 271 -79.46 271 -90 271 C-90 280.9 -90 290.8 -90 301 C-99.57 301 -109.14 301 -119 301 C-119 291.1 -119 281.2 -119 271 C-129.23 271 -139.46 271 -150 271 C-150 261.1 -150 251.2 -150 241 C-159.9 241 -169.8 241 -180 241 C-180 231.1 -180 221.2 -180 211 C-189.9 211 -199.8 211 -210 211 C-210 240.7 -210 270.4 -210 301 C-200.1 301 -190.2 301 -180 301 C-180 331.03 -180 361.06 -180 392 C-189.9 392 -199.8 392 -210 392 C-210 362.3 -210 332.6 -210 302 C-219.9 302 -229.8 302 -240 302 C-240 271.64 -240 241.28 -240 210 C-230.1 210 -220.2 210 -210 210 C-210 190.53 -210 171.06 -210 151 C-219.9 151 -229.8 151 -240 151 C-240 140.77 -240 130.54 -240 120 C-230.1 120 -220.2 120 -210 120 C-210 110.1 -210 100.2 -210 90 C-199.77 90 -189.54 90 -179 90 C-179 99.9 -179 109.8 -179 120 C-169.1 120 -159.2 120 -149 120 C-149 130.23 -149 140.46 -149 151 C-158.9 151 -168.8 151 -179 151 C-179 170.47 -179 189.94 -179 210 C-169.43 210 -159.86 210 -150 210 C-150 200.1 -150 190.2 -150 180 C-140.1 180 -130.2 180 -120 180 C-120 170.1 -120 160.2 -120 150 C-99.87 150 -79.74 150 -59 150 C-59 159.9 -59 169.8 -59 180 C-49.43 180 -39.86 180 -30 180 C-30 160.2 -30 140.4 -30 120 C-20.1 120 -10.2 120 0 120 C0 100.53 0 81.06 0 61 C-9.9 61 -19.8 61 -30 61 C-30 50.77 -30 40.54 -30 30 C-20.1 30 -10.2 30 0 30 C0 20.1 0 10.2 0 0 Z " fill="#080600" transform="translate(240,0)"/>
<path d="M0 0 C9.9 0 19.8 0 30 0 C30 9.9 30 19.8 30 30 C139.56 30 249.12 30 362 30 C362 20.1 362 10.2 362 0 C371.9 0 381.8 0 392 0 C392 9.57 392 19.14 392 29 C401.9 29 411.8 29 422 29 C422 38.9 422 48.8 422 59 C431.9 59 441.8 59 452 59 C452 69.23 452 79.46 452 90 C442.1 90 432.2 90 422 90 C422 99.9 422 109.8 422 120 C272.84 120 123.68 120 -30 120 C-30 110.1 -30 100.2 -30 90 C-39.9 90 -49.8 90 -60 90 C-60 79.77 -60 69.54 -60 59 C-50.1 59 -40.2 59 -30 59 C-30 49.1 -30 39.2 -30 29 C-20.1 29 -10.2 29 0 29 C0 19.43 0 9.86 0 0 Z " fill="#010100" transform="translate(60,392)"/>
<path d="M0 0 C10.23 0 20.46 0 31 0 C31 9.9 31 19.8 31 30 C40.9 30 50.8 30 61 30 C61 40.23 61 50.46 61 61 C51.1 61 41.2 61 31 61 C31 80.47 31 99.94 31 120 C40.57 120 50.14 120 60 120 C60 110.1 60 100.2 60 90 C69.9 90 79.8 90 90 90 C90 80.1 90 70.2 90 60 C110.13 60 130.26 60 151 60 C151 99.93 151 139.86 151 181 C140.77 181 130.54 181 120 181 C120 190.9 120 200.8 120 211 C110.43 211 100.86 211 91 211 C91 201.1 91 191.2 91 181 C80.77 181 70.54 181 60 181 C60 171.1 60 161.2 60 151 C50.1 151 40.2 151 30 151 C30 141.1 30 131.2 30 121 C20.1 121 10.2 121 0 121 C0 150.7 0 180.4 0 211 C9.9 211 19.8 211 30 211 C30 241.03 30 271.06 30 302 C20.1 302 10.2 302 0 302 C0 272.3 0 242.6 0 212 C-9.9 212 -19.8 212 -30 212 C-30 181.64 -30 151.28 -30 120 C-20.1 120 -10.2 120 0 120 C0 100.53 0 81.06 0 61 C-9.9 61 -19.8 61 -30 61 C-30 50.77 -30 40.54 -30 30 C-20.1 30 -10.2 30 0 30 C0 20.1 0 10.2 0 0 Z " fill="#060500" transform="translate(30,90)"/>
<path d="M0 0 C9.57 0 19.14 0 29 0 C29 9.9 29 19.8 29 30 C49.13 30 69.26 30 90 30 C90 39.9 90 49.8 90 60 C99.9 60 109.8 60 120 60 C120 50.1 120 40.2 120 30 C129.9 30 139.8 30 150 30 C150 59.7 150 89.4 150 120 C140.1 120 130.2 120 120 120 C120 150.03 120 180.06 120 211 C110.1 211 100.2 211 90 211 C90 220.9 90 230.8 90 241 C-19.56 241 -129.12 241 -242 241 C-242 231.1 -242 221.2 -242 211 C-241.67 211 -241.34 211 -241 211 C-241 220.57 -241 230.14 -241 240 C-151.9 240 -62.8 240 29 240 C29 230.1 29 220.2 29 210 C38.9 210 48.8 210 59 210 C59 200.43 59 190.86 59 181 C73.85 180.505 73.85 180.505 89 180 C89.33 170.1 89.66 160.2 90 150 C69.87 150 49.74 150 29 150 C29 140.1 29 130.2 29 120 C19.1 120 9.2 120 -1 120 C-1 110.1 -1 100.2 -1 90 C8.9 90 18.8 90 29 90 C29 80.1 29 70.2 29 60 C19.43 60 9.86 60 0 60 C0 40.2 0 20.4 0 0 Z " fill="#F2841E" transform="translate(332,181)"/>
<path d="M0 0 C149.16 0 298.32 0 452 0 C452 9.9 452 19.8 452 30 C302.84 30 153.68 30 0 30 C0 20.1 0 10.2 0 0 Z " fill="#000000" transform="translate(30,482)"/>
<path d="M0 0 C149.16 0 298.32 0 452 0 C452 9.9 452 19.8 452 30 C302.84 30 153.68 30 0 30 C0 20.1 0 10.2 0 0 Z " fill="#FDC805" transform="translate(30,452)"/>
<path d="M0 0 C10.56 0 21.12 0 32 0 C32 9.9 32 19.8 32 30 C41.9 30 51.8 30 62 30 C62 40.23 62 50.46 62 61 C52.1 61 42.2 61 32 61 C32 80.47 32 99.94 32 120 C41.9 120 51.8 120 62 120 C62 139.8 62 159.6 62 180 C71.57 180 81.14 180 91 180 C91 200.13 91 220.26 91 241 C81.1 241 71.2 241 61 241 C61 221.2 61 201.4 61 181 C51.1 181 41.2 181 31 181 C31 160.87 31 140.74 31 120 C21.1 120 11.2 120 1 120 C1 140.13 1 160.26 1 181 C-8.9 181 -18.8 181 -29 181 C-29 200.8 -29 220.6 -29 241 C-38.9 241 -48.8 241 -59 241 C-59 220.87 -59 200.74 -59 180 C-49.43 180 -39.86 180 -30 180 C-30 160.2 -30 140.4 -30 120 C-20.1 120 -10.2 120 0 120 C0 100.53 0 81.06 0 61 C-9.9 61 -19.8 61 -30 61 C-30 50.77 -30 40.54 -30 30 C-20.1 30 -10.2 30 0 30 C0 20.1 0 10.2 0 0 Z " fill="#080500" transform="translate(240,0)"/>
<path d="M0 0 C9.9 0 19.8 0 30 0 C30 9.9 30 19.8 30 30 C39.9 30 49.8 30 60 30 C60 49.8 60 69.6 60 90 C50.1 90 40.2 90 30 90 C30 100.23 30 110.46 30 121 C20.1 121 10.2 121 0 121 C0 110.77 0 100.54 0 90 C-9.9 90 -19.8 90 -30 90 C-30 70.2 -30 50.4 -30 30 C-20.1 30 -10.2 30 0 30 C0 20.1 0 10.2 0 0 Z " fill="#03A5DE" transform="translate(241,271)"/>
<path d="M0 0 C20.13 0 40.26 0 61 0 C61 30.03 61 60.06 61 91 C-3.28571429 91.14285714 -3.28571429 91.14285714 -29 90 C-29 80.43 -29 70.86 -29 61 C-19.43 61 -9.86 61 0 61 C0 40.87 0 20.74 0 0 Z " fill="#B54694" transform="translate(120,150)"/>
<path d="M0 0 C9.9 0 19.8 0 30 0 C30 30.36 30 60.72 30 92 C20.1 92 10.2 92 0 92 C0 121.7 0 151.4 0 182 C-9.9 182 -19.8 182 -30 182 C-30 151.97 -30 121.94 -30 91 C-20.1 91 -10.2 91 0 91 C0 60.97 0 30.94 0 0 Z " fill="#000000" transform="translate(482,210)"/>
<path d="M0 0 C9.9 0 19.8 0 30 0 C30 30.03 30 60.06 30 91 C39.9 91 49.8 91 60 91 C60 121.03 60 151.06 60 182 C50.1 182 40.2 182 30 182 C30 152.3 30 122.6 30 92 C20.1 92 10.2 92 0 92 C0 61.64 0 31.28 0 0 Z " fill="#000000" transform="translate(0,210)"/>
<path d="M0 0 C49.83 0 99.66 0 151 0 C151 9.9 151 19.8 151 30 C101.17 30 51.34 30 0 30 C0 20.1 0 10.2 0 0 Z " fill="#F4841F" transform="translate(331,452)"/>
<path d="M0 0 C9.57 0 19.14 0 29 0 C29 9.9 29 19.8 29 30 C49.13 30 69.26 30 90 30 C90 39.9 90 49.8 90 60 C80.1 60 70.2 60 60 60 C60 69.9 60 79.8 60 90 C49.77 90 39.54 90 29 90 C29 80.1 29 70.2 29 60 C19.43 60 9.86 60 0 60 C0 40.2 0 20.4 0 0 Z " fill="#E96F97" transform="translate(332,181)"/>
<path d="M0 0 C20.13 0 40.26 0 61 0 C61 20.13 61 40.26 61 61 C50.77 61 40.54 61 30 61 C30 51.1 30 41.2 30 31 C20.43 31 10.86 31 1 31 C1 50.8 1 70.6 1 91 C10.57 91 20.14 91 30 91 C30 100.9 30 110.8 30 121 C20.1 121 10.2 121 0 121 C0 81.07 0 41.14 0 0 Z " fill="#B1478C" transform="translate(331,150)"/>
<path d="M0 0 C0.33 0 0.66 0 1 0 C1 9.57 1 19.14 1 29 C5.29257813 28.9896875 9.58515625 28.979375 14.0078125 28.96875 C30.30131982 28.95435982 46.58420728 29.2019855 62.875 29.5 C65.62889694 29.54871338 68.38280719 29.59665242 71.13671875 29.64453125 C77.75787592 29.75985471 84.37891941 29.88000631 91 30 C91 39.9 91 49.8 91 60 C80.77 60 70.54 60 60 60 C60 69.9 60 79.8 60 90 C50.43 90 40.86 90 31 90 C31 80.1 31 70.2 31 60 C20.77 60 10.54 60 0 60 C0 40.2 0 20.4 0 0 Z " fill="#B84895" transform="translate(90,211)"/>
<path d="M0 0 C9.9 0 19.8 0 30 0 C30 19.8 30 39.6 30 60 C-4.49074074 60 -4.49074074 60 -16.875 59.5 C-23.371875 59.2525 -23.371875 59.2525 -30 59 C-30 49.43 -30 39.86 -30 30 C-20.1 30 -10.2 30 0 30 C0 20.1 0 10.2 0 0 Z " fill="#E96F98" transform="translate(121,181)"/>
<path d="M0 0 C10.56 0 21.12 0 32 0 C32 9.9 32 19.8 32 30 C41.9 30 51.8 30 62 30 C62 40.23 62 50.46 62 61 C51.77 61 41.54 61 31 61 C31 50.77 31 40.54 31 30 C20.77 30 10.54 30 0 30 C0 20.1 0 10.2 0 0 Z " fill="#000000" transform="translate(240,0)"/>
<path d="M0 0 C20.13 0 40.26 0 61 0 C61 9.9 61 19.8 61 30 C40.87 30 20.74 30 0 30 C0 20.1 0 10.2 0 0 Z " fill="#000000" transform="translate(331,150)"/>
<path d="M0 0 C20.13 0 40.26 0 61 0 C61 9.9 61 19.8 61 30 C40.87 30 20.74 30 0 30 C0 20.1 0 10.2 0 0 Z " fill="#000000" transform="translate(120,150)"/>
<path d="M0 0 C9.9 0 19.8 0 30 0 C30 20.13 30 40.26 30 61 C20.1 61 10.2 61 0 61 C0 40.87 0 20.74 0 0 Z " fill="#F4841F" transform="translate(241,120)"/>
<path d="M0 0 C9.9 0 19.8 0 30 0 C30 9.9 30 19.8 30 30 C39.57 30 49.14 30 59 30 C59 40.23 59 50.46 59 61 C49.43 61 39.86 61 30 61 C30 51.1 30 41.2 30 31 C20.1 31 10.2 31 0 31 C0 20.77 0 10.54 0 0 Z " fill="#010000" transform="translate(392,180)"/>
<path d="M0 0 C9.9 0 19.8 0 30 0 C30 10.23 30 20.46 30 31 C20.1 31 10.2 31 0 31 C0 40.9 0 50.8 0 61 C-9.57 61 -19.14 61 -29 61 C-29 50.77 -29 40.54 -29 30 C-19.43 30 -9.86 30 0 30 C0 20.1 0 10.2 0 0 Z " fill="#000000" transform="translate(90,180)"/>
<path d="M0 0 C9.9 0 19.8 0 30 0 C30 19.8 30 39.6 30 60 C20.1 60 10.2 60 0 60 C0 40.2 0 20.4 0 0 Z " fill="#000000" transform="translate(271,301)"/>
<path d="M0 0 C9.9 0 19.8 0 30 0 C30 19.8 30 39.6 30 60 C20.1 60 10.2 60 0 60 C0 40.2 0 20.4 0 0 Z " fill="#000000" transform="translate(211,301)"/>
<path d="M0 0 C9.9 0 19.8 0 30 0 C30 19.8 30 39.6 30 60 C20.1 60 10.2 60 0 60 C0 40.2 0 20.4 0 0 Z " fill="#F5841F" transform="translate(271,181)"/>
<path d="M0 0 C9.9 0 19.8 0 30 0 C30 19.8 30 39.6 30 60 C20.1 60 10.2 60 0 60 C0 40.2 0 20.4 0 0 Z " fill="#000000" transform="translate(272,120)"/>
<path d="M0 0 C9.9 0 19.8 0 30 0 C30 19.8 30 39.6 30 60 C20.1 60 10.2 60 0 60 C0 40.2 0 20.4 0 0 Z " fill="#000000" transform="translate(210,120)"/>
<path d="M0 0 C9.57 0 19.14 0 29 0 C29 20.13 29 40.26 29 61 C19.43 61 9.86 61 0 61 C0 40.87 0 20.74 0 0 Z " fill="#000000" transform="translate(302,180)"/>
<path d="M0 0 C9.57 0 19.14 0 29 0 C29 20.13 29 40.26 29 61 C19.43 61 9.86 61 0 61 C0 40.87 0 20.74 0 0 Z " fill="#000000" transform="translate(181,180)"/>
<path d="M0 0 C10.23 0 20.46 0 31 0 C31.020625 4.929375 31.04125 9.85875 31.0625 14.9375 C31.071604 16.49460693 31.08070801 18.05171387 31.09008789 19.65600586 C31.09258545 20.87167236 31.09508301 22.08733887 31.09765625 23.33984375 C31.10551147 25.21724243 31.10551147 25.21724243 31.11352539 27.13256836 C31 30 31 30 30 31 C27.78144736 31.08783542 25.56011504 31.10694609 23.33984375 31.09765625 C22.12417725 31.09515869 20.90851074 31.09266113 19.65600586 31.09008789 C18.09889893 31.08098389 16.54179199 31.07187988 14.9375 31.0625 C10.008125 31.041875 5.07875 31.02125 0 31 C0 20.77 0 10.54 0 0 Z " fill="#FEEBAA" transform="translate(331,331)"/>
<path d="M0 0 C10.23 0 20.46 0 31 0 C31 10.23 31 20.46 31 31 C26.070625 31.020625 21.14125 31.04125 16.0625 31.0625 C13.7268396 31.07615601 13.7268396 31.07615601 11.34399414 31.09008789 C9.52049438 31.09383423 9.52049438 31.09383423 7.66015625 31.09765625 C6.40855713 31.10289307 5.15695801 31.10812988 3.86743164 31.11352539 C1 31 1 31 0 30 C-0.08783542 27.78144736 -0.10694609 25.56011504 -0.09765625 23.33984375 C-0.09515869 22.12417725 -0.09266113 20.90851074 -0.09008789 19.65600586 C-0.08098389 18.09889893 -0.07187988 16.54179199 -0.0625 14.9375 C-0.041875 10.008125 -0.02125 5.07875 0 0 Z " fill="#FFEBAA" transform="translate(150,331)"/>
<path d="M0 0 C10.23 0 20.46 0 31 0 C31.020625 4.929375 31.04125 9.85875 31.0625 14.9375 C31.071604 16.49460693 31.08070801 18.05171387 31.09008789 19.65600586 C31.09258545 20.87167236 31.09508301 22.08733887 31.09765625 23.33984375 C31.10551147 25.21724243 31.10551147 25.21724243 31.11352539 27.13256836 C31 30 31 30 30 31 C27.78144736 31.08783542 25.56011504 31.10694609 23.33984375 31.09765625 C22.12417725 31.09515869 20.90851074 31.09266113 19.65600586 31.09008789 C18.09889893 31.08098389 16.54179199 31.07187988 14.9375 31.0625 C10.008125 31.041875 5.07875 31.02125 0 31 C0 20.77 0 10.54 0 0 Z " fill="#FFEBAA" transform="translate(90,331)"/>
<path d="M0 0 C9.9 0 19.8 0 30 0 C30 10.23 30 20.46 30 31 C20.1 31 10.2 31 0 31 C0 20.77 0 10.54 0 0 Z " fill="#040503" transform="translate(241,361)"/>
<path d="M0 0 C10.23 0 20.46 0 31 0 C31 9.9 31 19.8 31 30 C20.77 30 10.54 30 0 30 C0 20.1 0 10.2 0 0 Z " fill="#F2831F" transform="translate(331,271)"/>
<path d="M0 0 C10.23 0 20.46 0 31 0 C31 9.9 31 19.8 31 30 C20.77 30 10.54 30 0 30 C0 20.1 0 10.2 0 0 Z " fill="#B84797" transform="translate(361,241)"/>
<path d="M0 0 C9.9 0 19.8 0 30 0 C30 10.23 30 20.46 30 31 C20.1 31 10.2 31 0 31 C0 20.77 0 10.54 0 0 Z " fill="#000000" transform="translate(482,120)"/>
<path d="M0 0 C9.9 0 19.8 0 30 0 C30 10.23 30 20.46 30 31 C20.1 31 10.2 31 0 31 C0 20.77 0 10.54 0 0 Z " fill="#000000" transform="translate(421,120)"/>
<path d="M0 0 C9.9 0 19.8 0 30 0 C30 10.23 30 20.46 30 31 C20.1 31 10.2 31 0 31 C0 20.77 0 10.54 0 0 Z " fill="#000000" transform="translate(61,120)"/>
<path d="M0 0 C9.9 0 19.8 0 30 0 C30 10.23 30 20.46 30 31 C20.1 31 10.2 31 0 31 C0 20.77 0 10.54 0 0 Z " fill="#000000" transform="translate(0,120)"/>
<path d="M0 0 C10.23 0 20.46 0 31 0 C31 9.9 31 19.8 31 30 C20.77 30 10.54 30 0 30 C0 20.1 0 10.2 0 0 Z " fill="#000000" transform="translate(451,90)"/>
<path d="M0 0 C10.23 0 20.46 0 31 0 C31 9.9 31 19.8 31 30 C20.77 30 10.54 30 0 30 C0 20.1 0 10.2 0 0 Z " fill="#000000" transform="translate(30,90)"/>
<path d="M0 0 C9.9 0 19.8 0 30 0 C30 10.23 30 20.46 30 31 C20.1 31 10.2 31 0 31 C0 20.77 0 10.54 0 0 Z " fill="#000000" transform="translate(210,30)"/>
<path d="M0 0 C9.9 0 19.8 0 30 0 C30 9.9 30 19.8 30 30 C20.1 30 10.2 30 0 30 C0 20.1 0 10.2 0 0 Z " fill="#000000" transform="translate(241,271)"/>
<path d="M0 0 C9.9 0 19.8 0 30 0 C30 9.9 30 19.8 30 30 C20.1 30 10.2 30 0 30 C0 20.1 0 10.2 0 0 Z " fill="#F5841F" transform="translate(301,241)"/>
<path d="M0 0 C9.9 0 19.8 0 30 0 C30 9.9 30 19.8 30 30 C20.1 30 10.2 30 0 30 C0 20.1 0 10.2 0 0 Z " fill="#020200" transform="translate(151,241)"/>
<path d="M0 0 C9.9 0 19.8 0 30 0 C30 9.9 30 19.8 30 30 C20.1 30 10.2 30 0 30 C0 20.1 0 10.2 0 0 Z " fill="#020200" transform="translate(90,241)"/>
<path d="M0 0 C9.9 0 19.8 0 30 0 C30 9.9 30 19.8 30 30 C20.1 30 10.2 30 0 30 C0 20.1 0 10.2 0 0 Z " fill="#B94898" transform="translate(392,211)"/>
<path d="M0 0 C9.9 0 19.8 0 30 0 C30 9.9 30 19.8 30 30 C20.1 30 10.2 30 0 30 C0 20.1 0 10.2 0 0 Z " fill="#FEC805" transform="translate(241,30)"/>
<path d="M0 0 C9.57 0 19.14 0 29 0 C29 9.9 29 19.8 29 30 C19.43 30 9.86 30 0 30 C0 20.1 0 10.2 0 0 Z " fill="#000000" transform="translate(362,271)"/>
<path d="M0 0 C9.57 0 19.14 0 29 0 C29 9.9 29 19.8 29 30 C19.43 30 9.86 30 0 30 C0 20.1 0 10.2 0 0 Z " fill="#000000" transform="translate(121,271)"/>
<path d="M0 0 C9.57 0 19.14 0 29 0 C29 9.9 29 19.8 29 30 C19.43 30 9.86 30 0 30 C0 20.1 0 10.2 0 0 Z " fill="#000000" transform="translate(392,241)"/>
<path d="M0 0 C9.57 0 19.14 0 29 0 C29 9.9 29 19.8 29 30 C19.43 30 9.86 30 0 30 C0 20.1 0 10.2 0 0 Z " fill="#000000" transform="translate(332,241)"/>
<path d="M0 0 C9.9 0 19.8 0 30 0 C30 9.57 30 19.14 30 29 C20.1 29 10.2 29 0 29 C0 19.43 0 9.86 0 0 Z " fill="#FEC805" transform="translate(452,121)"/>
<path d="M0 0 C9.9 0 19.8 0 30 0 C30 9.57 30 19.14 30 29 C20.1 29 10.2 29 0 29 C0 19.43 0 9.86 0 0 Z " fill="#FEC805" transform="translate(30,121)"/>
<path d="M0 0 C9.57 0 19.14 0 29 0 C29 9.57 29 19.14 29 29 C19.43 29 9.86 29 0 29 C0 19.43 0 9.86 0 0 Z " fill="#FFEEB4" transform="translate(392,332)"/>
</svg>
