<?xml version="1.0" encoding="UTF-8"?>
<svg version="1.1" xmlns="http://www.w3.org/2000/svg" width="512" height="512">
<path d="M0 0 C10.56 0 21.12 0 32 0 C32 9.9 32 19.8 32 30 C41.9 30 51.8 30 62 30 C62 59.7 62 89.4 62 120 C71.57 120 81.14 120 91 120 C91 90.3 91 60.6 91 30 C111.13 30 131.26 30 152 30 C152 39.9 152 49.8 152 60 C161.9 60 171.8 60 182 60 C182 79.8 182 99.6 182 120 C191.57 120 201.14 120 211 120 C211 110.1 211 100.2 211 90 C231.13 90 251.26 90 272 90 C272 120.36 272 150.72 272 182 C262.1 182 252.2 182 242 182 C242 211.7 242 241.4 242 272 C232.1 272 222.2 272 212 272 C212 281.9 212 291.8 212 302 C82.64 302 -46.72 302 -180 302 C-180 292.1 -180 282.2 -180 272 C-189.9 272 -199.8 272 -210 272 C-210 242.3 -210 212.6 -210 182 C-219.9 182 -229.8 182 -240 182 C-240 151.64 -240 121.28 -240 90 C-219.87 90 -199.74 90 -179 90 C-179 99.9 -179 109.8 -179 120 C-169.43 120 -159.86 120 -150 120 C-150 100.2 -150 80.4 -150 60 C-140.1 60 -130.2 60 -120 60 C-120 50.1 -120 40.2 -120 30 C-99.87 30 -79.74 30 -59 30 C-59 59.7 -59 89.4 -59 120 C-49.43 120 -39.86 120 -30 120 C-30 90.3 -30 60.6 -30 30 C-20.1 30 -10.2 30 0 30 C0 20.1 0 10.2 0 0 Z M-149 121 C-149 130.9 -149 140.8 -149 151 C-139.43 151 -129.86 151 -120 151 C-120 141.1 -120 131.2 -120 121 C-129.57 121 -139.14 121 -149 121 Z M-89 121 C-89 130.9 -89 140.8 -89 151 C-79.43 151 -69.86 151 -60 151 C-60 141.1 -60 131.2 -60 121 C-69.57 121 -79.14 121 -89 121 Z M92 121 C92 130.9 92 140.8 92 151 C101.57 151 111.14 151 121 151 C121 141.1 121 131.2 121 121 C111.43 121 101.86 121 92 121 Z M152 121 C152 130.9 152 140.8 152 151 C161.57 151 171.14 151 181 151 C181 141.1 181 131.2 181 121 C171.43 121 161.86 121 152 121 Z M-119 152 C-119 161.57 -119 171.14 -119 181 C-109.43 181 -99.86 181 -90 181 C-90 171.43 -90 161.86 -90 152 C-99.57 152 -109.14 152 -119 152 Z M1 152 C1 161.57 1 171.14 1 181 C10.9 181 20.8 181 31 181 C31 171.43 31 161.86 31 152 C21.1 152 11.2 152 1 152 Z M122 152 C122 161.57 122 171.14 122 181 C131.57 181 141.14 181 151 181 C151 171.43 151 161.86 151 152 C141.43 152 131.86 152 122 152 Z M-29 182 C-29 201.47 -29 220.94 -29 241 C-19.43 241 -9.86 241 0 241 C0 221.53 0 202.06 0 182 C-9.57 182 -19.14 182 -29 182 Z M32 182 C32 201.47 32 220.94 32 241 C41.57 241 51.14 241 61 241 C61 221.53 61 202.06 61 182 C51.43 182 41.86 182 32 182 Z M-149 212 C-149 221.57 -149 231.14 -149 241 C-139.43 241 -129.86 241 -120 241 C-120 231.43 -120 221.86 -120 212 C-129.57 212 -139.14 212 -149 212 Z M-89 212 C-89 221.57 -89 231.14 -89 241 C-79.43 241 -69.86 241 -60 241 C-60 231.43 -60 221.86 -60 212 C-69.57 212 -79.14 212 -89 212 Z M92 212 C92 221.57 92 231.14 92 241 C101.57 241 111.14 241 121 241 C121 231.43 121 221.86 121 212 C111.43 212 101.86 212 92 212 Z M152 212 C152 221.57 152 231.14 152 241 C161.57 241 171.14 241 181 241 C181 231.43 181 221.86 181 212 C171.43 212 161.86 212 152 212 Z M1 242 C1 251.57 1 261.14 1 271 C10.9 271 20.8 271 31 271 C31 261.43 31 251.86 31 242 C21.1 242 11.2 242 1 242 Z " fill="#FEFEFE" transform="translate(240,120)"/>
<path d="M0 0 C168.96 0 337.92 0 512 0 C512 10.23 512 20.46 512 31 C502.1 31 492.2 31 482 31 C482 40.9 482 50.8 482 61 C332.84 61 183.68 61 30 61 C30 51.1 30 41.2 30 31 C20.1 31 10.2 31 0 31 C0 20.77 0 10.54 0 0 Z " fill="#FFFFFF" transform="translate(0,451)"/>
<path d="M0 0 C10.56 0 21.12 0 32 0 C32 9.9 32 19.8 32 30 C41.9 30 51.8 30 62 30 C62 40.23 62 50.46 62 61 C52.1 61 42.2 61 32 61 C32 70.9 32 80.8 32 91 C21.44 91 10.88 91 0 91 C0 81.1 0 71.2 0 61 C-9.9 61 -19.8 61 -30 61 C-30 50.77 -30 40.54 -30 30 C-20.1 30 -10.2 30 0 30 C0 20.1 0 10.2 0 0 Z M1 31 C1 40.57 1 50.14 1 60 C10.9 60 20.8 60 31 60 C31 50.43 31 40.86 31 31 C21.1 31 11.2 31 1 31 Z " fill="#FEFEFE" transform="translate(240,0)"/>
<path d="M0 0 C10.23 0 20.46 0 31 0 C31 9.9 31 19.8 31 30 C40.9 30 50.8 30 61 30 C61 40.23 61 50.46 61 61 C51.1 61 41.2 61 31 61 C31 70.9 31 80.8 31 91 C20.77 91 10.54 91 0 91 C0 81.1 0 71.2 0 61 C-9.9 61 -19.8 61 -30 61 C-30 50.77 -30 40.54 -30 30 C-20.1 30 -10.2 30 0 30 C0 20.1 0 10.2 0 0 Z M1 31 C1 40.57 1 50.14 1 60 C10.57 60 20.14 60 30 60 C30 50.43 30 40.86 30 31 C20.43 31 10.86 31 1 31 Z " fill="#FEFEFE" transform="translate(30,90)"/>
<path d="M0 0 C10.23 0 20.46 0 31 0 C31 9.9 31 19.8 31 30 C40.9 30 50.8 30 61 30 C61 40.23 61 50.46 61 61 C51.1 61 41.2 61 31 61 C31 70.9 31 80.8 31 91 C20.77 91 10.54 91 0 91 C0 81.1 0 71.2 0 61 C-9.9 61 -19.8 61 -30 61 C-30 50.77 -30 40.54 -30 30 C-20.1 30 -10.2 30 0 30 C0 20.1 0 10.2 0 0 Z M1 31 C1 40.57 1 50.14 1 60 C10.57 60 20.14 60 30 60 C30 50.43 30 40.86 30 31 C20.43 31 10.86 31 1 31 Z " fill="#FDFDFD" transform="translate(451,90)"/>
</svg>
