<?xml version="1.0" encoding="UTF-8"?>
<svg version="1.1" xmlns="http://www.w3.org/2000/svg" width="174" height="174">
<path d="M0 0 C6.93 0 13.86 0 21 0 C21 3.3 21 6.6 21 10 C24.3 10 27.6 10 31 10 C31 13.3 31 16.6 31 20 C34.3 20 37.6 20 41 20 C41 16.7 41 13.4 41 10 C54.53 10 68.06 10 82 10 C82 13.3 82 16.6 82 20 C85.3 20 88.6 20 92 20 C92 16.7 92 13.4 92 10 C95.3 10 98.6 10 102 10 C102 6.7 102 3.4 102 0 C108.93 0 115.86 0 123 0 C123 9.9 123 19.8 123 30 C126.3 30 129.6 30 133 30 C133 47.16 133 64.32 133 82 C129.7 82 126.4 82 123 82 C123 85.63 123 89.26 123 93 C119.7 93 116.4 93 113 93 C113 96.3 113 99.6 113 103 C106.4 103 99.8 103 93 103 C93 106.3 93 109.6 93 113 C89.37 113 85.74 113 82 113 C82 115.97 82 118.94 82 122 C82.71027344 121.98839844 83.42054687 121.97679688 84.15234375 121.96484375 C85.07144531 121.95582031 85.99054688 121.94679688 86.9375 121.9375 C87.85402344 121.92589844 88.77054687 121.91429688 89.71484375 121.90234375 C92 122 92 122 93 123 C93.09326716 124.56547048 93.11745582 126.13512772 93.11352539 127.70336914 C93.11341209 129.20481224 93.11341209 129.20481224 93.11329651 130.73658752 C93.10813522 131.8251152 93.10297394 132.91364288 93.09765625 134.03515625 C93.0962413 135.14354355 93.09482635 136.25193085 93.09336853 137.39390564 C93.08775033 140.95013069 93.07519475 144.50629383 93.0625 148.0625 C93.05748734 150.46679597 93.05292403 152.87109292 93.04882812 155.27539062 C93.03777499 161.18361504 93.02101917 167.0918031 93 173 C94.65 173 96.3 173 98 173 C98 173.33 98 173.66 98 174 C72.26 174 46.52 174 20 174 C20 173.67 20 173.34 20 173 C23.3 173 26.6 173 30 173 C30 163.43 30 153.86 30 144 C20.1 144 10.2 144 0 144 C0 140.37 0 136.74 0 133 C-3.3 133 -6.6 133 -10 133 C-10 126.4 -10 119.8 -10 113 C-13.63 113 -17.26 113 -21 113 C-21 109.37 -21 105.74 -21 102 C-13.74 102 -6.48 102 1 102 C1 105.3 1 108.6 1 112 C4.3 112 7.6 112 11 112 C11 115.3 11 118.6 11 122 C17.27 122 23.54 122 30 122 C30 115.73 30 109.46 30 103 C23.4 103 16.8 103 10 103 C10 99.7 10 96.4 10 93 C6.7 93 3.4 93 0 93 C0 89.37 0 85.74 0 82 C-3.3 82 -6.6 82 -10 82 C-10 64.84 -10 47.68 -10 30 C-6.7 30 -3.4 30 0 30 C0 20.1 0 10.2 0 0 Z " fill="#FEFEFE" transform="translate(25,0)"/>
<path d="M0 0 C1.98 0 3.96 0 6 0 C6 0.33 6 0.66 6 1 C4.02 1 2.04 1 0 1 C0 0.67 0 0.34 0 0 Z " fill="#D7D7D7" transform="translate(161,143)"/>
<path d="" fill="#656565" transform="translate(0,0)"/>
</svg>
