<svg xmlns="http://www.w3.org/2000/svg" xmlns:xlink="http://www.w3.org/1999/xlink" width="840" zoomAndPan="magnify" viewBox="0 0 630 299.999988" height="400" preserveAspectRatio="xMidYMid meet" version="1.0"><defs><clipPath id="c8ed8f2f99"><path d="M 214 25.65625 L 415 25.65625 L 415 274.65625 L 214 274.65625 Z M 214 25.65625 " clip-rule="nonzero"/></clipPath></defs><g clip-path="url(#c8ed8f2f99)"><path fill="#6762a6" d="M 391.023438 274.65625 L 237.734375 274.65625 C 236.957031 274.65625 236.183594 274.613281 235.410156 274.535156 C 234.640625 274.457031 233.871094 274.339844 233.109375 274.1875 C 232.351562 274.03125 231.597656 273.839844 230.855469 273.613281 C 230.113281 273.386719 229.382812 273.125 228.667969 272.824219 C 227.949219 272.527344 227.25 272.195312 226.566406 271.828125 C 225.882812 271.460938 225.21875 271.058594 224.570312 270.628906 C 223.925781 270.195312 223.304688 269.734375 222.703125 269.242188 C 222.105469 268.75 221.53125 268.226562 220.980469 267.679688 C 220.433594 267.128906 219.910156 266.554688 219.417969 265.953125 C 218.925781 265.355469 218.464844 264.734375 218.03125 264.085938 C 217.597656 263.441406 217.199219 262.777344 216.832031 262.09375 C 216.464844 261.410156 216.132812 260.707031 215.835938 259.992188 C 215.535156 259.277344 215.273438 258.546875 215.046875 257.804688 C 214.816406 257.0625 214.628906 256.308594 214.472656 255.546875 C 214.320312 254.789062 214.203125 254.019531 214.125 253.25 C 214.046875 252.476562 214.003906 251.703125 214 250.925781 L 214 49.390625 C 214.003906 48.613281 214.046875 47.839844 214.125 47.066406 C 214.203125 46.296875 214.320312 45.527344 214.472656 44.765625 C 214.628906 44.007812 214.816406 43.253906 215.046875 42.511719 C 215.273438 41.769531 215.535156 41.039062 215.835938 40.324219 C 216.132812 39.605469 216.464844 38.90625 216.832031 38.222656 C 217.199219 37.539062 217.597656 36.875 218.03125 36.226562 C 218.464844 35.582031 218.925781 34.960938 219.417969 34.359375 C 219.910156 33.761719 220.433594 33.1875 220.980469 32.636719 C 221.53125 32.089844 222.105469 31.566406 222.703125 31.074219 C 223.304688 30.582031 223.925781 30.121094 224.570312 29.6875 C 225.21875 29.253906 225.882812 28.855469 226.566406 28.488281 C 227.25 28.121094 227.949219 27.789062 228.667969 27.492188 C 229.382812 27.191406 230.113281 26.929688 230.855469 26.703125 C 231.597656 26.472656 232.351562 26.285156 233.109375 26.128906 C 233.871094 25.976562 234.640625 25.859375 235.410156 25.78125 C 236.183594 25.703125 236.957031 25.660156 237.734375 25.65625 L 391.023438 25.65625 C 391.800781 25.660156 392.574219 25.703125 393.347656 25.78125 C 394.121094 25.859375 394.886719 25.976562 395.648438 26.128906 C 396.410156 26.285156 397.160156 26.472656 397.902344 26.703125 C 398.644531 26.929688 399.375 27.191406 400.09375 27.492188 C 400.808594 27.789062 401.507812 28.121094 402.195312 28.488281 C 402.878906 28.855469 403.542969 29.253906 404.1875 29.6875 C 404.832031 30.121094 405.457031 30.582031 406.054688 31.074219 C 406.65625 31.566406 407.230469 32.089844 407.777344 32.636719 C 408.328125 33.1875 408.847656 33.761719 409.339844 34.359375 C 409.835938 34.960938 410.296875 35.582031 410.726562 36.226562 C 411.160156 36.875 411.558594 37.539062 411.925781 38.222656 C 412.292969 38.90625 412.625 39.605469 412.925781 40.324219 C 413.222656 41.039062 413.488281 41.769531 413.714844 42.511719 C 413.941406 43.253906 414.132812 44.007812 414.285156 44.765625 C 414.441406 45.527344 414.554688 46.296875 414.636719 47.066406 C 414.714844 47.839844 414.753906 48.613281 414.757812 49.390625 L 414.757812 250.925781 C 414.753906 251.703125 414.714844 252.476562 414.636719 253.25 C 414.554688 254.019531 414.441406 254.789062 414.285156 255.546875 C 414.132812 256.308594 413.941406 257.0625 413.714844 257.804688 C 413.488281 258.546875 413.222656 259.277344 412.925781 259.992188 C 412.628906 260.707031 412.292969 261.410156 411.925781 262.09375 C 411.558594 262.777344 411.160156 263.441406 410.730469 264.085938 C 410.296875 264.734375 409.835938 265.355469 409.339844 265.953125 C 408.847656 266.554688 408.328125 267.128906 407.777344 267.679688 C 407.230469 268.226562 406.65625 268.75 406.054688 269.242188 C 405.457031 269.734375 404.832031 270.195312 404.1875 270.628906 C 403.542969 271.058594 402.878906 271.460938 402.195312 271.828125 C 401.507812 272.195312 400.808594 272.527344 400.09375 272.824219 C 399.375 273.125 398.644531 273.386719 397.902344 273.613281 C 397.160156 273.839844 396.410156 274.03125 395.648438 274.1875 C 394.886719 274.339844 394.121094 274.457031 393.347656 274.535156 C 392.574219 274.613281 391.800781 274.65625 391.023438 274.65625 Z M 391.023438 274.65625 " fill-opacity="1" fill-rule="nonzero"/></g><path fill="#ffffff" d="M 339.863281 240.371094 L 339.863281 141.5 C 339.863281 141.5 346.28125 117.816406 260.59375 151.226562 C 260.496094 152.101562 260.496094 59.699219 260.496094 59.699219 L 288.410156 59.554688 L 288.410156 117.914062 C 288.410156 117.914062 366.707031 87.03125 366.707031 141.257812 L 366.707031 239.789062 L 339.71875 239.789062 Z M 355.816406 95.152344 L 326.636719 95.152344 C 337.335938 82.023438 347.0625 59.652344 347.0625 59.652344 L 377.699219 59.652344 C 377.699219 59.652344 372.449219 74.242188 356.300781 95.152344 Z M 260.980469 240.175781 L 260.980469 183.910156 L 289.1875 212.117188 L 260.980469 240.324219 Z M 260.980469 240.175781 " fill-opacity="1" fill-rule="nonzero"/></svg>