<svg xmlns="http://www.w3.org/2000/svg" xmlns:xlink="http://www.w3.org/1999/xlink" version="1.1" width="1000" height="1000" viewBox="0 0 1000 1000" xml:space="preserve">
<desc>Created with Fabric.js 3.5.0</desc>
<defs>
</defs>
<rect x="0" y="0" width="100%" height="100%" fill="rgba(255,255,255,0)"/>
<g transform="matrix(0.5859 0 0 0.5859 499.968 499.9935)" id="312803">
<g style="" vector-effect="non-scaling-stroke">
		<g transform="matrix(0.1333 0 0 -0.1333 -530.7473 -1.3764)">
<path style="stroke: none; stroke-width: 1; stroke-dasharray: none; stroke-linecap: butt; stroke-dashoffset: 0; stroke-linejoin: miter; stroke-miterlimit: 4; is-custom-font: none; font-file-url: none; fill: rgb(255,255,255); fill-rule: nonzero; opacity: 1;" transform=" translate(-2420, -1310)" d="M 0 1310 l 0 -1290 l 220 0 l 220 0 l 0 1011 c 0 555 4 1008 9 1005 c 4 -3 372 -458 817 -1011 l 808 -1005 l 1383 0 l 1383 0 l 0 205 l 0 205 l -890 0 l -890 0 l 0 340 l 0 340 l 715 0 l 715 0 l 0 210 l 0 210 l -715 0 l -715 0 l 0 330 l 0 330 l 890 0 l 890 0 l 0 205 l 0 205 l -1115 0 l -1115 0 l -2 -1275 l -3 -1274 l -1025 1274 l -1025 1274 l -277 1 l -278 0 l 0 -1290 z" stroke-linecap="round"/>
</g>
		<g transform="matrix(0.1333 0 0 -0.1333 40.8521 -1.455)">
<path style="stroke: none; stroke-width: 1; stroke-dasharray: none; stroke-linecap: butt; stroke-dashoffset: 0; stroke-linejoin: miter; stroke-miterlimit: 4; is-custom-font: none; font-file-url: none; fill: rgb(255,255,255); fill-rule: nonzero; opacity: 1;" transform=" translate(-6706.7212, -1310.5903)" d="M 5387 2588 c 53 -69 2031 -2529 2047 -2546 c 22 -22 22 -22 307 -20 l 286 3 l -514 638 c -282 350 -513 641 -513 645 c 0 4 229 294 510 642 c 280 349 510 638 510 643 c 0 4 -127 7 -283 7 l -283 0 l -360 -447 c -197 -245 -366 -455 -374 -466 c -15 -18 -36 6 -390 447 l -375 466 l -289 0 c -229 0 -286 -3 -279 -12 z" stroke-linecap="round"/>
</g>
		<g transform="matrix(0.1333 0 0 -0.1333 429.9629 -1.3764)">
<path style="stroke: none; stroke-width: 1; stroke-dasharray: none; stroke-linecap: butt; stroke-dashoffset: 0; stroke-linejoin: miter; stroke-miterlimit: 4; is-custom-font: none; font-file-url: none; fill: rgb(255,255,255); fill-rule: nonzero; opacity: 1;" transform=" translate(-9625, -1310)" d="M 8510 2395 l 0 -205 l 450 0 l 450 0 l 0 -1085 l 0 -1085 l 220 0 l 220 0 l 2 1083 l 3 1082 l 443 3 l 442 2 l 0 205 l 0 205 l -1115 0 l -1115 0 l 0 -205 z" stroke-linecap="round"/>
</g>
		<g transform="matrix(0.1333 0 0 -0.1333 797.5464 95.3196)">
<path style="stroke: none; stroke-width: 1; stroke-dasharray: none; stroke-linecap: butt; stroke-dashoffset: 0; stroke-linejoin: miter; stroke-miterlimit: 4; is-custom-font: none; font-file-url: none; fill: rgb(255,255,255); fill-rule: nonzero; opacity: 1;" transform=" translate(-12381.7027, -584.9653)" d="M 12293 1129 c -210 -35 -340 -207 -289 -383 c 33 -113 120 -171 346 -231 c 146 -39 198 -62 229 -101 c 45 -57 16 -145 -61 -186 c -36 -19 -58 -23 -133 -23 c -127 0 -188 34 -218 121 l -14 39 l -94 0 l -94 0 l 3 -40 c 5 -56 43 -135 86 -178 c 139 -139 467 -154 631 -29 c 95 73 135 197 102 313 c -34 116 -132 183 -352 240 c -66 17 -141 42 -166 55 c -55 27 -84 78 -75 128 c 7 39 58 89 105 105 c 43 14 146 13 189 -2 c 44 -16 92 -64 99 -98 l 6 -29 l 93 0 l 94 0 l 0 33 c 0 17 -11 55 -24 82 c -66 143 -257 218 -463 184 z" stroke-linecap="round"/>
</g>
		<g transform="matrix(0.1333 0 0 -0.1333 672.6277 96.2416)">
<path style="stroke: none; stroke-width: 1; stroke-dasharray: none; stroke-linecap: butt; stroke-dashoffset: 0; stroke-linejoin: miter; stroke-miterlimit: 4; is-custom-font: none; font-file-url: none; fill: rgb(255,255,255); fill-rule: nonzero; opacity: 1;" transform=" translate(-11444.7943, -578.0518)" d="M 11590 713 c 0 -448 0 -451 -62 -496 c -35 -26 -123 -27 -165 -2 c -34 20 -63 63 -63 94 c 0 20 -5 21 -100 21 c -115 0 -114 1 -85 -96 c 30 -103 126 -175 257 -193 c 177 -25 326 47 391 187 c 21 45 22 61 25 470 l 3 422 l -100 0 l -101 0 l 0 -407 z" stroke-linecap="round"/>
</g>
		<g transform="matrix(0.1333 0 0 -0.1333 -58.1985 98.115)">
<path style="stroke: none; stroke-width: 1; stroke-dasharray: none; stroke-linecap: butt; stroke-dashoffset: 0; stroke-linejoin: miter; stroke-miterlimit: 4; is-custom-font: none; font-file-url: none; fill: rgb(255,255,255); fill-rule: nonzero; opacity: 1;" transform=" translate(-5963.6549, -564.0016)" d="M 5830 583 c -234 -290 -431 -535 -438 -545 c -13 -17 -1 -18 276 -18 l 289 0 l 279 347 c 153 191 287 356 296 368 c 16 21 13 26 -123 196 c -76 96 -142 175 -147 177 c -4 1 -199 -235 -432 -525 z" stroke-linecap="round"/>
</g>
		<g transform="matrix(0.1333 0 0 -0.1333 591.4881 152.7461)">
<path style="stroke: none; stroke-width: 1; stroke-dasharray: none; stroke-linecap: butt; stroke-dashoffset: 0; stroke-linejoin: miter; stroke-miterlimit: 4; is-custom-font: none; font-file-url: none; fill: rgb(255,255,255); fill-rule: nonzero; opacity: 1;" transform=" translate(-10836.1893, -154.375)" d="M 10795 256 c -41 -18 -65 -47 -71 -88 c -12 -69 44 -128 122 -128 c 54 0 104 53 104 109 c 0 51 -24 89 -67 107 c -39 17 -50 17 -88 0 z" stroke-linecap="round"/>
</g>
</g>
</g>
</svg>