<svg xmlns="http://www.w3.org/2000/svg" xmlns:xlink="http://www.w3.org/1999/xlink" version="1.1" width="1000" height="1000" viewBox="0 0 1000 1000" xml:space="preserve">
<desc>Created with Fabric.js 3.5.0</desc>
<defs>
</defs>
<rect x="0" y="0" width="100%" height="100%" fill="rgba(255,255,255,0)"/>
<g transform="matrix(3.5071 0 0 3.5071 496.2637 513.7949)" id="84599">
<path style="stroke: none; stroke-width: 1; stroke-dasharray: none; stroke-linecap: butt; stroke-dashoffset: 0; stroke-linejoin: miter; stroke-miterlimit: 4; is-custom-font: none; font-file-url: none; fill: rgb(255,255,255); fill-rule: nonzero; opacity: 1;" vector-effect="non-scaling-stroke" transform=" translate(-141.36, -32)" d="M 141.04 16 c -11.04 0 -19 7.2 -19 18 s 8.96 18 20 18 c 6.67 0 12.55 -2.64 16.19 -7.09 l -7.65 -4.42 c -2.02 2.21 -5.09 3.5 -8.54 3.5 c -4.79 0 -8.86 -2.5 -10.37 -6.5 h 28.02 c 0.22 -1.12 0.35 -2.28 0.35 -3.5 c 0 -10.79 -7.96 -17.99 -19 -17.99 z m -9.46 14.5 c 1.25 -3.99 4.67 -6.5 9.45 -6.5 c 4.79 0 8.21 2.51 9.45 6.5 z M 248.72 16 c -11.04 0 -19 7.2 -19 18 s 8.96 18 20 18 c 6.67 0 12.55 -2.64 16.19 -7.09 l -7.65 -4.42 c -2.02 2.21 -5.09 3.5 -8.54 3.5 c -4.79 0 -8.86 -2.5 -10.37 -6.5 h 28.02 c 0.22 -1.12 0.35 -2.28 0.35 -3.5 c 0 -10.79 -7.96 -17.99 -19 -17.99 z m -9.45 14.5 c 1.25 -3.99 4.67 -6.5 9.45 -6.5 c 4.79 0 8.21 2.51 9.45 6.5 z M 200.24 34 c 0 6 3.92 10 10 10 c 4.12 0 7.21 -1.87 8.8 -4.92 l 7.68 4.43 c -3.18 5.3 -9.14 8.49 -16.48 8.49 c -11.05 0 -19 -7.2 -19 -18 s 7.96 -18 19 -18 c 7.34 0 13.29 3.19 16.48 8.49 l -7.68 4.43 c -1.59 -3.05 -4.68 -4.92 -8.8 -4.92 c -6.07 0 -10 4 -10 10 z m 82.48 -29 v 46 h -9 V 5 z M 36.95 0 L 73.9 64 H 0 z m 92.38 5 l -27.71 48 L 73.91 5 H 84.3 l 17.32 30 l 17.32 -30 z m 58.91 12 v 9.69 c -1 -0.29 -2.06 -0.49 -3.2 -0.49 c -5.81 0 -10 4 -10 10 V 51 h -9 V 17 h 9 v 9.2 c 0 -5.08 5.91 -9.2 13.2 -9.2 z" stroke-linecap="round"/>
</g>
</svg>