<?xml version="1.0" encoding="UTF-8"?>
<svg version="1.1" xmlns="http://www.w3.org/2000/svg" width="355" height="355">
<path d="M0 0 C21.12 0 42.24 0 64 0 C64 10.56 64 21.12 64 32 C85.12 32 106.24 32 128 32 C128 21.44 128 10.88 128 0 C149.12 0 170.24 0 192 0 C192 10.56 192 21.12 192 32 C207.84 32 223.68 32 240 32 C240 58.4 240 84.8 240 112 C250.56 112 261.12 112 272 112 C272 154.24 272 196.48 272 240 C261.44 240 250.88 240 240 240 C240 250.56 240 261.12 240 272 C208.32 272 176.64 272 144 272 C144 261.44 144 250.88 144 240 C112.32 240 80.64 240 48 240 C48 250.56 48 261.12 48 272 C16.32 272 -15.36 272 -48 272 C-48 261.44 -48 250.88 -48 240 C-58.56 240 -69.12 240 -80 240 C-80 197.76 -80 155.52 -80 112 C-69.44 112 -58.88 112 -48 112 C-48 85.6 -48 59.2 -48 32 C-32.16 32 -16.32 32 0 32 C0 21.44 0 10.88 0 0 Z M16 96 C16 117.12 16 138.24 16 160 C31.84 160 47.68 160 64 160 C64 138.88 64 117.76 64 96 C48.16 96 32.32 96 16 96 Z M128 96 C128 117.12 128 138.24 128 160 C143.84 160 159.68 160 176 160 C176 138.88 176 117.76 176 96 C160.16 96 144.32 96 128 96 Z M-16 208 C-16 218.56 -16 229.12 -16 240 C5.12 240 26.24 240 48 240 C48 229.44 48 218.88 48 208 C26.88 208 5.76 208 -16 208 Z M144 208 C144 218.56 144 229.12 144 240 C165.12 240 186.24 240 208 240 C208 229.44 208 218.88 208 208 C186.88 208 165.76 208 144 208 Z " fill="#FFFFFF" transform="translate(81,49)"/>
</svg>
